<svg xmlns="http://www.w3.org/2000/svg" xmlns:svg="http://www.w3.org/2000/svg" id="svg4" width="20.558" height="29.264" version="1.1" viewBox="0 0 20.558 29.264"><metadata id="metadata10"/><path id="path2" d="m 18.846017,1.608 c -0.497,-0.326 -1.193,-0.615 -2.069,-0.858 -1.742,-0.484 -4.05,-0.75 -6.498,-0.75 -2.4480004,0 -4.7560004,0.267 -6.4980004,0.75 -0.877,0.243 -1.573,0.532 -2.069,0.858 -0.619,0.407 -0.93299996,0.874 -0.93299996,1.391 v 12 c 0,0.517 0.31399996,0.985 0.93299996,1.391 0.497,0.326 1.193,0.615 2.069,0.858 1.742,0.484 4.05,0.75 6.4980004,0.75 2.448,0 4.756,-0.267 6.498,-0.751 0.877,-0.243 1.573,-0.532 2.069,-0.858 0.619,-0.406 0.933,-0.874 0.933,-1.391 v -12 c 0,-0.517 -0.314,-0.985 -0.933,-1.391 z M 4.0490166,1.713 c 1.658,-0.46 3.87,-0.714 6.2300004,-0.714 2.36,0 4.573,0.254 6.23,0.714 1.795,0.499 2.27,1.059 2.27,1.286 0,0.227 -0.474,0.787 -2.27,1.286 -1.658,0.46 -3.87,0.714 -6.23,0.714 -2.3600004,0 -4.5730004,-0.254 -6.2300004,-0.714 -1.795,-0.499 -2.27,-1.059 -2.27,-1.286 0,-0.227 0.474,-0.787 2.27,-1.286 z M 16.509017,16.285 c -1.658,0.46 -3.87,0.714 -6.23,0.714 -2.3600004,0 -4.5730004,-0.254 -6.2300004,-0.714 -1.795,-0.499 -2.27,-1.059 -2.27,-1.286 v -2.566 c 0.492,0.309 1.164,0.583 2.002,0.816 1.742,0.484 4.05,0.75 6.4980004,0.75 2.448,0 4.756,-0.267 6.498,-0.751 0.838,-0.233 1.511,-0.507 2.002,-0.816 v 2.566 c 0,0.227 -0.474,0.787 -2.27,1.286 z m 0,-4 c -1.658,0.46 -3.87,0.714 -6.23,0.714 -2.3600004,0 -4.5730004,-0.254 -6.2300004,-0.714 -1.795,-0.499 -2.27,-1.059 -2.27,-1.286 V 8.433 c 0.492,0.309 1.164,0.583 2.002,0.816 1.742,0.484 4.05,0.75 6.4980004,0.75 2.448,0 4.756,-0.267 6.498,-0.75 0.838,-0.233 1.511,-0.507 2.002,-0.816 v 2.566 c 0,0.227 -0.474,0.787 -2.27,1.286 z m 0,-4 c -1.658,0.46 -3.87,0.714 -6.23,0.714 -2.3600004,0 -4.5730004,-0.254 -6.2300004,-0.714 -1.795,-0.499 -2.27,-1.059 -2.27,-1.286 V 4.433 c 0.492,0.309 1.164,0.583 2.002,0.816 1.742,0.484 4.05,0.75 6.4980004,0.75 2.448,0 4.756,-0.267 6.498,-0.75 0.838,-0.233 1.511,-0.507 2.002,-0.816 v 2.566 c 0,0.227 -0.474,0.787 -2.27,1.286 z" style="fill:#000"/><text xml:space="preserve" style="font-style:normal;font-weight:400;font-size:32.32878494px;line-height:1.25;font-family:sans-serif;letter-spacing:0;word-spacing:0;fill:#000;fill-opacity:1;stroke:none;stroke-width:.99999994" id="text819" x="-.71" y="27.875"><tspan id="tspan817" x="-.71" y="27.875" style="font-size:10.77626133px;stroke-width:.99999994">SQL</tspan></text></svg>